<svg width="800" height="500" xmlns="http://www.w3.org/2000/svg">
  <defs>
    <linearGradient id="grad1" x1="0%" y1="0%" x2="100%" y2="100%">
      <stop offset="0%" style="stop-color:#002855;stop-opacity:0.1" />
      <stop offset="100%" style="stop-color:#002855;stop-opacity:0.3" />
    </linearGradient>
  </defs>
  <rect width="800" height="500" fill="url(#grad1)" rx="10" ry="10" />
  
  <!-- Patent Document -->
  <rect x="150" y="100" width="200" height="280" fill="white" stroke="#002855" stroke-width="2" rx="5" ry="5" />
  <line x1="170" y1="140" x2="330" y2="140" stroke="#002855" stroke-width="1" />
  <line x1="170" y1="170" x2="330" y2="170" stroke="#002855" stroke-width="1" />
  <line x1="170" y1="200" x2="330" y2="200" stroke="#002855" stroke-width="1" />
  <line x1="170" y1="230" x2="330" y2="230" stroke="#002855" stroke-width="1" />
  <line x1="170" y1="260" x2="330" y2="260" stroke="#002855" stroke-width="1" />
  <line x1="170" y1="290" x2="330" y2="290" stroke="#002855" stroke-width="1" />
  <line x1="170" y1="320" x2="330" y2="320" stroke="#002855" stroke-width="1" />
  <rect x="170" y="350" width="160" height="15" fill="#002855" rx="2" ry="2" />
  
  <!-- Lightbulb -->
  <circle cx="500" cy="150" r="40" fill="white" stroke="#002855" stroke-width="2" />
  <path d="M500,110 L500,90" stroke="#002855" stroke-width="2" />
  <path d="M500,210 L500,190" stroke="#002855" stroke-width="2" />
  <path d="M460,150 L440,150" stroke="#002855" stroke-width="2" />
  <path d="M560,150 L540,150" stroke="#002855" stroke-width="2" />
  <path d="M470,120 L455,105" stroke="#002855" stroke-width="2" />
  <path d="M530,180 L545,195" stroke="#002855" stroke-width="2" />
  <path d="M470,180 L455,195" stroke="#002855" stroke-width="2" />
  <path d="M530,120 L545,105" stroke="#002855" stroke-width="2" />
  
  <!-- Scales of Justice -->
  <line x1="550" y1="300" x2="550" y2="400" stroke="#002855" stroke-width="3" />
  <line x1="500" y1="300" x2="600" y2="300" stroke="#002855" stroke-width="3" />
  <circle cx="500" cy="330" r="25" fill="white" stroke="#002855" stroke-width="2" />
  <circle cx="600" cy="330" r="25" fill="white" stroke="#002855" stroke-width="2" />
  
  <!-- Abstract Shapes -->
  <circle cx="700" cy="150" r="30" fill="none" stroke="#002855" stroke-width="2" />
  <circle cx="700" cy="150" r="15" fill="none" stroke="#002855" stroke-width="2" />
  <rect x="670" y="250" width="60" height="60" fill="none" stroke="#002855" stroke-width="2" rx="5" ry="5" transform="rotate(45, 700, 280)" />
  <rect x="680" y="260" width="40" height="40" fill="none" stroke="#002855" stroke-width="2" rx="3" ry="3" transform="rotate(45, 700, 280)" />
  
  <!-- Gears -->
  <circle cx="400" cy="380" r="40" fill="none" stroke="#002855" stroke-width="2" />
  <circle cx="400" cy="380" r="15" fill="none" stroke="#002855" stroke-width="2" />
  <path d="M400,340 L400,330" stroke="#002855" stroke-width="2" />
  <path d="M400,430 L400,420" stroke="#002855" stroke-width="2" />
  <path d="M360,380 L350,380" stroke="#002855" stroke-width="2" />
  <path d="M450,380 L440,380" stroke="#002855" stroke-width="2" />
  <path d="M372,352 L365,345" stroke="#002855" stroke-width="2" />
  <path d="M435,415 L428,408" stroke="#002855" stroke-width="2" />
  <path d="M372,408 L365,415" stroke="#002855" stroke-width="2" />
  <path d="M435,345 L428,352" stroke="#002855" stroke-width="2" />
</svg>
